<?xml version="1.0" encoding="UTF-8" standalone="no"?>
<!-- Created with Inkscape (http://www.inkscape.org/) -->

<svg
   version="1.1"
   id="svg1"
   width="233.4375"
   height="212.82027"
   viewBox="0 0 233.4375 212.82027"
   sodipodi:docname="sqrt2.svg"
   inkscape:version="1.4.2 (f4327f4, 2025-05-13)"
   xmlns:inkscape="http://www.inkscape.org/namespaces/inkscape"
   xmlns:sodipodi="http://sodipodi.sourceforge.net/DTD/sodipodi-0.dtd"
   xmlns="http://www.w3.org/2000/svg"
   xmlns:svg="http://www.w3.org/2000/svg">
  <defs
     id="defs1" />
  <sodipodi:namedview
     id="namedview1"
     pagecolor="#ffffff"
     bordercolor="#000000"
     borderopacity="0.25"
     inkscape:showpageshadow="2"
     inkscape:pageopacity="0.0"
     inkscape:pagecheckerboard="0"
     inkscape:deskcolor="#d1d1d1"
     inkscape:zoom="2.4380266"
     inkscape:cx="116.69274"
     inkscape:cy="127.3571"
     inkscape:window-width="1680"
     inkscape:window-height="979"
     inkscape:window-x="-8"
     inkscape:window-y="-8"
     inkscape:window-maximized="1"
     inkscape:current-layer="g1">
    <inkscape:page
       x="0"
       y="0"
       inkscape:label="1"
       id="page1"
       width="233.4375"
       height="212.82027"
       margin="0"
       bleed="0" />
  </sodipodi:namedview>
  <g
     id="g1"
     inkscape:groupmode="layer"
     inkscape:label="1"
     transform="translate(-23.980469,-23.324219)">
    <path
       id="path1"
       d="M 0,0 H 160.35393"
       style="fill:none;stroke:#000000;stroke-width:0.79701;stroke-linecap:butt;stroke-linejoin:miter;stroke-miterlimit:10;stroke-dasharray:none;stroke-opacity:1"
       transform="matrix(1.3333333,0,0,-1.3333333,38.785333,188.54267)" />
    <path
       id="path2"
       d="M 0,0 113.38724,113.38724"
       style="fill:none;stroke:#000000;stroke-width:0.79701;stroke-linecap:butt;stroke-linejoin:miter;stroke-miterlimit:10;stroke-dasharray:none;stroke-opacity:1"
       transform="matrix(1.3333333,0,0,-1.3333333,38.785333,188.54267)" />
    <path
       id="path3"
       d="M 3.8801797,8.5201719 2.1223672,4.6412656 C 2.0520547,4.4889219 2.0051797,4.4889219 1.9700234,4.4889219 c -0.011719,0 -0.058594,0 -0.1640625,0.070312 l -0.94921871,0.726563 c -0.12890625,0.09375 -0.12890625,0.1289062 -0.12890625,0.1523437 0,0.046875 0.0351563,0.1054688 0.10546875,0.1054688 0.0585938,0 0.22265621,-0.1289063 0.32812501,-0.2109375 0.070312,-0.046875 0.2109375,-0.1640625 0.328125,-0.2460938 l 1.9570312,4.3125 c 0.070312,0.1640625 0.1171875,0.1640625 0.2109375,0.1640625 0.1523438,0 0.1757813,-0.058594 0.2460938,-0.1992187 L 8.4270547,6.40625e-4 c 0.070312,-0.140624995 0.070312,-0.175781245 0.070312,-0.199218745 0,-0.10546875 -0.082031,-0.19921875 -0.1992188,-0.19921875 -0.082031,0 -0.1523437,0.046875 -0.2226562,0.2109375 z m 0,0"
       style="fill:#000000;fill-opacity:1;fill-rule:nonzero;stroke:none"
       aria-label="√"
       transform="matrix(1.3333333,0,0,1.3333333,91.705333,95.241333)" />
    <path
       id="path4"
       d="M 0,0 H 4.981"
       style="fill:none;stroke:#000000;stroke-width:0.398;stroke-linecap:butt;stroke-linejoin:miter;stroke-miterlimit:10;stroke-dasharray:none;stroke-opacity:1"
       transform="matrix(1.3333333,0,0,-1.3333333,102.77467,94.974667)" />
    <path
       id="path5"
       d="M 1.2647031,-0.76086719 2.3193906,-1.7921172 c 1.5585938,-1.3710937 2.15625,-1.9101562 2.15625,-2.90625 0,-1.1367187 -0.9023437,-1.9335937 -2.1210937,-1.9335937 -1.125,0 -1.85156252,0.9140625 -1.85156252,1.8046875 0,0.5507812 0.4921875,0.5507812 0.52734372,0.5507812 0.1640625,0 0.515625,-0.1171875 0.515625,-0.5273437 0,-0.2578125 -0.1875,-0.515625 -0.5273437,-0.515625 -0.0820313,0 -0.10546877,0 -0.12890627,0.011719 0.22265627,-0.6445312 0.76171877,-1.0195312 1.33593747,-1.0195312 0.9140625,0 1.3359375,0.8085937 1.3359375,1.6289062 0,0.796875 -0.4921875,1.5820313 -1.0429687,2.203125 L 0.60845313,-0.36242969 C 0.50298438,-0.25696094 0.50298438,-0.23352344 0.50298438,8.515625e-4 H 4.1943906 L 4.4756406,-1.7335234 H 4.2178281 c -0.046875,0.3046875 -0.1171875,0.73828121 -0.2109375,0.89062496 -0.070312,0.0820313 -0.7265625,0.0820313 -0.9492187,0.0820313 z m 0,0"
       style="fill:#000000;fill-opacity:1;fill-rule:nonzero;stroke:none"
       aria-label="2"
       transform="matrix(1.3333333,0,0,1.3333333,102.77467,106.22933)" />
    <path
       id="path6"
       d="M 113.38724,0 V 113.38724"
       style="fill:none;stroke:#000000;stroke-width:0.79701;stroke-linecap:butt;stroke-linejoin:miter;stroke-miterlimit:10;stroke-dasharray:none;stroke-opacity:1"
       transform="matrix(1.3333333,0,0,-1.3333333,38.785333,188.54267)" />
    <path
       id="path7"
       d="m 2.9300234,-6.3761484 c 0,-0.234375 0,-0.2578125 -0.234375,-0.2578125 -0.609375,0.6328125 -1.4882812,0.6328125 -1.80468746,0.6328125 v 0.3164062 c 0.19921876,0 0.78515626,0 1.30078126,-0.2578125 v 5.15625001 c 0,0.3515625 -0.035156,0.48046875 -0.9257813,0.48046875 H 0.94955469 v 0.3046875 C 1.3011172,-0.03630469 2.1565859,-0.03630469 2.5550234,-0.03630469 c 0.3984375,0 1.265625,0 1.6171875,0.03515625 v -0.3046875 H 3.8558047 c -0.9023438,0 -0.9257813,-0.1171875 -0.9257813,-0.48046875 z m 0,0"
       style="fill:#000000;fill-opacity:1;fill-rule:nonzero;stroke:none"
       aria-label="1"
       transform="matrix(1.3333333,0,0,1.3333333,194.92533,117.232)" />
    <path
       id="path8"
       d="m 2.9297031,-6.3749375 c 0,-0.234375 0,-0.2578125 -0.234375,-0.2578125 -0.609375,0.6328125 -1.4882812,0.6328125 -1.80468747,0.6328125 v 0.3164063 c 0.19921877,0 0.78515627,0 1.30078127,-0.2578125 v 5.15624995 c 0,0.3515625 -0.035156,0.48046875 -0.9257813,0.48046875 H 0.94923438 V 6.25e-5 C 1.3007969,-0.03509375 2.1562656,-0.03509375 2.5547031,-0.03509375 c 0.3984375,0 1.265625,0 1.6171875,0.03515625 V -0.304625 H 3.8554844 c -0.9023438,0 -0.9257813,-0.1171875 -0.9257813,-0.48046875 z m 0,0"
       style="fill:#000000;fill-opacity:1;fill-rule:nonzero;stroke:none"
       aria-label="1"
       transform="matrix(1.3333333,0,0,1.3333333,111.05467,204.71867)" />
    <path
       id="path9"
       d="M 113.38724,113.38724 C 143.45358,83.32088 160.3537,42.52037 160.3537,-2.1e-4"
       style="fill:none;stroke:#000000;stroke-width:0.79701;stroke-linecap:butt;stroke-linejoin:miter;stroke-miterlimit:10;stroke-dasharray:2.98883, 2.98883;stroke-dashoffset:0;stroke-opacity:1"
       transform="matrix(1.3333333,0,0,-1.3333333,38.785333,188.54267)" />
    <path
       id="path10"
       d="m 102.04778,0 v 11.33939 h 11.33946"
       style="fill:none;stroke:#000000;stroke-width:0.79701;stroke-linecap:butt;stroke-linejoin:miter;stroke-miterlimit:10;stroke-dasharray:none;stroke-opacity:1"
       transform="matrix(1.3333333,0,0,-1.3333333,38.785333,188.54267)" />
    <path
       id="path11"
       d="M 1.99255,0 C 1.99255,1.10046 1.10046,1.99255 0,1.99255 -1.10046,1.99255 -1.99255,1.10046 -1.99255,0 c 0,-1.10046 0.89209,-1.99255 1.99255,-1.99255 1.10046,0 1.99255,0.89209 1.99255,1.99255 z"
       style="fill:#000000;fill-opacity:1;fill-rule:nonzero;stroke:none"
       transform="matrix(1.3333333,0,0,-1.3333333,38.785333,188.54267)" />
    <path
       id="path12"
       d="m 7.3702578,-4.3480625 c 0,-1.59375 -1.0546875,-2.671875 -2.5429687,-2.671875 -2.1445313,0 -4.33593754,2.2617188 -4.33593754,4.5820313 0,1.6523437 1.11328124,2.6601562 2.54296874,2.6601562 2.109375,0 4.3359375,-2.1796875 4.3359375,-4.5703125 z m -4.2773437,4.3125 c -0.984375,0 -1.6757813,-0.80859375 -1.6757813,-2.1210937 0,-0.4453125 0.140625,-1.8984375 0.9023438,-3.0585938 0.6914062,-1.0429687 1.6640625,-1.5585937 2.4492187,-1.5585937 0.8203125,0 1.7109375,0.5625 1.7109375,2.0390625 0,0.7148437 -0.2695312,2.2734375 -1.2539062,3.5039062 -0.4804688,0.59765625 -1.2890625,1.1953125 -2.1328125,1.1953125 z m 0,0"
       style="fill:#000000;fill-opacity:1;fill-rule:nonzero;stroke:none"
       aria-label="O"
       transform="matrix(1.3333333,0,0,1.3333333,23.325333,202.57867)" />
    <path
       id="path13"
       d="m 115.37979,0 c 0,1.10046 -0.89209,1.99255 -1.99255,1.99255 -1.10048,0 -1.99256,-0.89209 -1.99256,-1.99255 0,-1.10046 0.89208,-1.99255 1.99256,-1.99255 1.10046,0 1.99255,0.89209 1.99255,1.99255 z"
       style="fill:#000000;fill-opacity:1;fill-rule:nonzero;stroke:none"
       transform="matrix(1.3333333,0,0,-1.3333333,38.785333,188.54267)" />
    <path
       id="path14"
       d="M 1.7805313,-1.1488437 C 1.3820938,-0.480875 0.995375,-0.34025 0.56178125,-0.30509375 c -0.12890625,0 -0.2109375,0 -0.2109375,0.19921875 0,0.05859375 0.046875,0.10546875 0.12890625,0.10546875 0.26953125,0 0.5742188,-0.03515625 0.8554688,-0.03515625 0.328125,0 0.6796875,0.03515625 0.9960937,0.03515625 0.058594,0 0.1875,0 0.1875,-0.1875 0,-0.1171875 -0.09375,-0.1171875 -0.1640625,-0.1171875 -0.2226562,-0.0234375 -0.4570312,-0.10546875 -0.4570312,-0.3515625 0,-0.1171875 0.058594,-0.234375 0.1289062,-0.37499995 l 0.7617188,-1.265625 H 5.2844375 C 5.307875,-2.0980625 5.4485,-0.7386875 5.4485,-0.63321875 c 0,0.29296875 -0.515625,0.328125 -0.7148437,0.328125 -0.140625,0 -0.2460938,0 -0.2460938,0.19921875 0,0.10546875 0.1289063,0.10546875 0.140625,0.10546875 0.4101563,0 0.84375,-0.03515625 1.2539063,-0.03515625 0.2460937,0 0.8671875,0.03515625 1.125,0.03515625 0.058594,0 0.1757812,0 0.1757812,-0.19921875 0,-0.10546875 -0.1054687,-0.10546875 -0.234375,-0.10546875 -0.609375,0 -0.609375,-0.0703125 -0.6445312,-0.36328125 L 5.6945938,-6.8910312 C 5.682875,-7.09025 5.682875,-7.137125 5.5070938,-7.137125 c -0.1640625,0 -0.1992188,0.070312 -0.2578125,0.1757813 z m 1.1953125,-1.4648438 1.96875,-3.28125 0.3164062,3.28125 z m 0,0"
       style="fill:#000000;fill-opacity:1;fill-rule:nonzero;stroke:none"
       aria-label="A"
       transform="matrix(1.3333333,0,0,1.3333333,184.98533,202.57867)" />
    <path
       id="path15"
       d="m 115.37979,113.38724 c 0,1.10046 -0.89209,1.99255 -1.99255,1.99255 -1.10048,0 -1.99256,-0.89209 -1.99256,-1.99255 0,-1.10048 0.89208,-1.99256 1.99256,-1.99256 1.10046,0 1.99255,0.89208 1.99255,1.99256 z"
       style="fill:#000000;fill-opacity:1;fill-rule:nonzero;stroke:none"
       transform="matrix(1.3333333,0,0,-1.3333333,38.785333,188.54267)" />
    <path
       id="path16"
       d="m 1.5930625,-0.77367969 c -0.09375,0.38671875 -0.1171875,0.46875 -0.90234375,0.46875 -0.17578125,0 -0.26953125,0 -0.26953125,0.19921875 0,0.1054687525 0.0820313,0.1054687525 0.26953125,0.1054687525 H 4.2415 c 1.5703125,0 2.7539063,-1.1718750125 2.7539063,-2.1562500125 0,-0.7148437 -0.5859375,-1.2890625 -1.546875,-1.3945312 1.03125,-0.1992188 2.0859375,-0.9375 2.0859375,-1.875 0,-0.7382813 -0.65625,-1.3828125 -1.8515625,-1.3828125 H 2.3313438 c -0.1875,0 -0.2929688,0 -0.2929688,0.1992187 0,0.1171875 0.09375,0.1171875 0.28125,0.1171875 0.023437,0 0.2109375,0 0.375,0.011719 0.1875,0.023437 0.2695313,0.035156 0.2695313,0.1640625 0,0.035156 -0.011719,0.070312 -0.035156,0.1875 z m 1.5,-2.87109371 0.6210938,-2.4726563 c 0.09375,-0.3515625 0.1054687,-0.375 0.5390625,-0.375 h 1.2890625 c 0.8671875,0 1.078125,0.5859375 1.078125,1.0195313 0,0.8789062 -0.8554688,1.828125 -2.0742188,1.828125 z M 2.64775,-0.30492969 c -0.140625,0 -0.1523437,0 -0.2226562,-0.0117188 -0.09375,-0.0117188 -0.1289063,-0.0234375 -0.1289063,-0.10546875 0,-0.0234375 0,-0.046875 0.058594,-0.22265625 L 3.0344688,-3.4221172 h 1.8867187 c 0.9609375,0 1.1484375,0.7265625 1.1484375,1.1601563 0,0.984375 -0.890625,1.95703121 -2.0625,1.95703121 z m 0,0"
       style="fill:#000000;fill-opacity:1;fill-rule:nonzero;stroke:none"
       aria-label="B"
       transform="matrix(1.3333333,0,0,1.3333333,184.59467,32.402667)" />
    <path
       id="path17"
       d="m 162.34648,0 c 0,1.10046 -0.89209,1.99255 -1.99255,1.99255 -1.10048,0 -1.99256,-0.89209 -1.99256,-1.99255 0,-1.10046 0.89208,-1.99255 1.99256,-1.99255 1.10046,0 1.99255,0.89209 1.99255,1.99255 z"
       style="fill:#000000;fill-opacity:1;fill-rule:nonzero;stroke:none"
       transform="matrix(1.3333333,0,0,-1.3333333,38.785333,188.54267)" />
    <path
       id="path18"
       d="m 3.0241953,-3.15275 h 1.6875 c 1.4179688,0 2.8007813,-1.03125 2.8007813,-2.1445312 0,-0.7734375 -0.65625,-1.5117188 -1.96875,-1.5117188 H 2.3210703 c -0.1875,0 -0.2929687,0 -0.2929687,0.1992188 0,0.1171875 0.082031,0.1171875 0.28125,0.1171875 0.1289062,0 0.3164062,0.011719 0.4335937,0.011719 0.1523438,0.023437 0.2109375,0.058594 0.2109375,0.1640625 0,0.035156 0,0.070312 -0.035156,0.1875 l -1.3359375,5.35546875 c -0.09375,0.38671875 -0.1171875,0.46875 -0.90234379,0.46875 -0.17578125,0 -0.28125,0 -0.28125,0.1875 0,0.1171875 0.1171875,0.1171875 0.15234375,0.1171875 0.28125,0 0.98437504,-0.03515625 1.26562504,-0.03515625 0.2109375,0 0.421875,0.01171875 0.6328125,0.01171875 0.2226562,0 0.4453125,0.0234375 0.6445312,0.0234375 0.070312,0 0.1992188,0 0.1992188,-0.19921875 0,-0.10546875 -0.082031,-0.10546875 -0.2695313,-0.10546875 -0.375,0 -0.65625,0 -0.65625,-0.1875 0,-0.0585938 0.023437,-0.10546875 0.035156,-0.1640625 z m 0.7148438,-2.9648437 c 0.082031,-0.3515625 0.1054687,-0.375 0.5390625,-0.375 h 0.9492187 c 0.8320313,0 1.359375,0.2695312 1.359375,0.9492187 0,0.3984375 -0.1992187,1.2539063 -0.5859375,1.6054688 -0.5039062,0.4453125 -1.1015625,0.5273437 -1.5351562,0.5273437 h -1.40625 z m 0,0"
       style="fill:#000000;fill-opacity:1;fill-rule:nonzero;stroke:none"
       aria-label="P"
       transform="matrix(1.3333333,0,0,1.3333333,247.40133,202.57867)" />
    <path
       id="path19"
       d="m 38.785333,207.01492 c 1.195467,2.39108 3.985107,3.98511 7.970213,3.98511 h 90.962184 c 3.98511,0 6.77473,1.59401 7.97021,3.9851 1.1955,-2.39109 3.98511,-3.9851 7.97022,-3.9851 h 90.96219 c 3.98511,0 6.77474,-1.59403 7.97022,-3.98511"
       style="fill:none;stroke:#000000;stroke-width:0.531333;stroke-linecap:butt;stroke-linejoin:miter;stroke-miterlimit:10;stroke-dasharray:none;stroke-opacity:1" />
    <path
       id="path20"
       d="m 142.00391,234.75391 -2.34375,-5.17188 c -0.0937,-0.20312 -0.15625,-0.20312 -0.20313,-0.20312 -0.0156,0 -0.0781,0 -0.21875,0.0937 l -1.26562,0.96875 c -0.17188,0.125 -0.17188,0.17187 -0.17188,0.20312 0,0.0625 0.0469,0.14063 0.14063,0.14063 0.0781,0 0.29687,-0.17188 0.4375,-0.28125 0.0937,-0.0625 0.28125,-0.21875 0.4375,-0.32813 l 2.60937,5.75 c 0.0937,0.21875 0.15625,0.21875 0.28125,0.21875 0.20313,0 0.23438,-0.0781 0.32813,-0.26562 l 6.03125,-12.48438 c 0.0937,-0.1875 0.0937,-0.23437 0.0937,-0.26562 0,-0.14063 -0.10938,-0.26563 -0.26563,-0.26563 -0.10937,0 -0.20312,0.0625 -0.29687,0.28125 z m 0,0"
       style="fill:#000000;fill-opacity:1;fill-rule:nonzero;stroke:none;stroke-width:1.33333"
       aria-label="√" />
    <path
       id="path21"
       d="m 147.9,223.13067 h 6.64133"
       style="fill:none;stroke:#000000;stroke-width:0.530667;stroke-linecap:butt;stroke-linejoin:miter;stroke-miterlimit:10;stroke-dasharray:none;stroke-opacity:1" />
    <path
       id="path22"
       d="m 149.58594,233.37109 1.40625,-1.375 c 2.07812,-1.82812 2.875,-2.54687 2.875,-3.875 0,-1.51562 -1.20313,-2.57812 -2.82813,-2.57812 -1.5,0 -2.46875,1.21875 -2.46875,2.40625 0,0.73437 0.65625,0.73437 0.70313,0.73437 0.21875,0 0.6875,-0.15625 0.6875,-0.70312 0,-0.34375 -0.25,-0.6875 -0.70313,-0.6875 -0.10937,0 -0.14062,0 -0.17187,0.0156 0.29687,-0.85937 1.01562,-1.35937 1.78125,-1.35937 1.21875,0 1.78125,1.07812 1.78125,2.17187 0,1.0625 -0.65625,2.10938 -1.39063,2.9375 l -2.54687,2.84375 c -0.14063,0.14063 -0.14063,0.17188 -0.14063,0.48438 h 4.92188 l 0.375,-2.3125 h -0.34375 c -0.0625,0.40625 -0.15625,0.98437 -0.28125,1.1875 -0.0937,0.10937 -0.96875,0.10937 -1.26563,0.10937 z m 0,0"
       style="fill:#000000;fill-opacity:1;fill-rule:nonzero;stroke:none;stroke-width:1.33333"
       aria-label="2" />
  </g>
</svg>
